[Header]
FileType HTR
DataType HTRS
FileVersion 1
NumSegments 22
NumFrames 5
DataFrameRate 24
EulerRotationOrder ZYX
CalibrationUnits mm
RotationUnits Degrees
GlobalAxisofGravity Y
BoneLengthAxis Y
ScaleFactor 1.0
[SegmentNames&Hierarchy]
reference	GLOBAL
Hips	reference
Spine	Hips
Spine1	Spine
Neck	Spine1
Head	Neck
LeftShoulder	Spine1
LeftArm	LeftShoulder
LeftForeArm	LeftArm
LeftHand	LeftForeArm
RightShoulder	Spine1
RightArm	RightShoulder
RightForeArm	RightArm
RightHand	RightForeArm
LeftUpLeg	Hips
LeftLeg	LeftUpLeg
LeftFoot	LeftLeg
LeftToeBase	LeftFoot
RightUpLeg	Hips
RightLeg	RightUpLeg
RightFoot	RightLeg
RightToeBase	RightFoot
[BasePosition]
reference	0	0	0	0	0	0	1
Hips	0	0	0	0	0	0	1
Spine	0	0	0	0	-0	90	1
Spine1	0	0	0	0	0	0	1
Neck	0	0	0	-7.352430803	-7.352430803	90	1
Head	0	0	0	0	-0	90	1
LeftShoulder	0	0	0	0	0	0	1
LeftArm	0	0	0	0	0	0	1
LeftForeArm	0	0	0	0	0	0	1
LeftHand	0	0	0	0	0	0	1
RightShoulder	0	0	0	0	-0	180	1
RightArm	0	0	0	0	-0	180	1
RightForeArm	0	0	0	0	-0	180	1
RightHand	0	0	0	0	-0	180	1
LeftUpLeg	0	0	0	0	-0	-90	1
LeftLeg	0	0	0	0	-0	-90	1
LeftFoot	0	0	0	66.57150701	-66.57150701	-90	1
LeftToeBase	0	0	0	0	-90	0	1
RightUpLeg	0	0	0	0	-0	-90	1
RightLeg	0	0	0	0	-0	-90	1
RightFoot	0	0	0	66.57150701	-66.57150701	-90	1
RightToeBase	0	0	0	0	-90	0	1
[reference]
37	0	0	0	0	-0	0	1.0
38	0	0	0	0	-0	0	1.0
39	0	0	0	0	-0	0	1.0
40	0	0	0	0	-0	0	1.0
41	0	0	0	0	-0	0	1.0
[Hips]
37	2.550109863	11.15281582	1.079155087	-4.163864136	-94.86107635	21.15013123	1.0
38	2.864192724	11.15184975	1.089928985	2.357190847	-95.8250351	24.30111885	1.0
39	2.901972294	11.14495754	1.100738287	16.34404373	-95.59351349	14.98742485	1.0
40	2.916139603	11.06609821	1.111535668	27.87518311	-95.52342224	5.339375496	1.0
41	2.889326572	10.88227367	1.122272968	20.73544502	-95.05232239	14.91547108	1.0
[Spine]
37	0	0.7478299737	0	7.006011486	1.815770507	-88.24637604	1.0
38	0	0.7478299737	0	6.490883827	2.172389746	-87.95008087	1.0
39	0	0.7478299737	0	7.941262245	3.23069334	-87.9682312	1.0
40	0	0.7478299737	0	9.200422287	3.531381607	-88.15135956	1.0
41	0	0.7478299737	0	4.685905933	4.621047974	-87.05067444	1.0
[Spine1]
37	0	2.049309969	0	-6.962271214	2.057579279	2.211957932	1.0
38	0	2.049309969	0	-7.466413498	2.309431314	1.888555884	1.0
39	0	2.049309969	0	-11.39276314	1.29735589	1.212817907	1.0
40	0	2.049309969	0	-11.57219124	1.275062323	0.6235287189	1.0
41	0	2.049309969	0	-9.812009811	1.607570529	0.3418774605	1.0
[Neck]
37	0	2.231709957	0	20.04754829	8.30154705	-85.8353653	1.0
38	0	2.231709957	0	15.37356949	8.414720535	-86.00891876	1.0
39	0	2.231709957	0	-14.41437817	8.934867859	-87.6237793	1.0
40	0	2.231709957	0	-26.56519318	9.017481804	-89.2051239	1.0
41	0	2.231709957	0	-26.36514664	8.482645035	-88.41235352	1.0
[Head]
37	0	1.413589954	0.1823999882	-8.208475113	0.1730666161	-96.5994339	1.0
38	0	1.413589954	0.1823999882	-8.11316967	0.4331900477	-96.6439743	1.0
39	0	1.413589954	0.1823999882	-6.445935249	1.795287728	-96.402771	1.0
40	0	1.413589954	0.1823999882	-4.640655041	2.153669834	-95.97928619	1.0
41	0	1.413589954	0.1823999882	-4.738965034	1.46374476	-96.29640198	1.0
[LeftShoulder]
37	0.3649300039	1.825889945	-0.04271000251	-14.30152035	-11.599123	0.9686534405	1.0
38	0.3649300039	1.825889945	-0.04271000251	-14.2300663	-12.25849342	1.05452764	1.0
39	0.3649300039	1.825889945	-0.04271000251	-16.95125961	-11.76012325	0.9117847681	1.0
40	0.3649300039	1.825889945	-0.04271000251	-17.20894051	-10.8022747	2.823233604	1.0
41	0.3649300039	1.825889945	-0.04271000251	-17.02608109	-11.43806076	1.545739412	1.0
[LeftArm]
37	1.24003005	0	0	53.07064819	-4.780744076	-72.00563812	1.0
38	1.24003005	0	0	57.46718979	-2.336636782	-78.01958466	1.0
39	1.24003005	0	0	58.33761597	3.422449589	-83.44018555	1.0
40	1.24003005	0	0	56.45156097	5.806007862	-85.70294189	1.0
41	1.24003005	0	0	54.65909958	5.986800194	-82.91107178	1.0
[LeftForeArm]
37	2.847419977	0	0	-122.6283493	-56.2646904	140.3179321	1.0
38	2.847419977	0	0	-110.4540329	-48.61914063	134.1126709	1.0
39	2.847419977	0	0	-103.2439041	-44.69284821	131.4544067	1.0
40	2.847419977	0	0	-107.9897156	-45.75374222	132.599884	1.0
41	2.847419977	0	0	-110.4909363	-47.92103577	134.3896027	1.0
[LeftHand]
37	2.258270025	0	0	-11.9758482	-20.37791824	7.346235275	1.0
38	2.258270025	0	0	-18.30140114	-21.13627815	8.401132584	1.0
39	2.258270025	0	0	-20.1434536	-20.50769997	8.897246361	1.0
40	2.258270025	0	0	-21.88514709	-18.76259041	9.884156227	1.0
41	2.258270025	0	0	-18.45500374	-20.11439896	6.460674763	1.0
[RightShoulder]
37	-0.3646599948	1.825889945	-0.04271000251	-1.065697551	11.39081573	184.6918182	1.0
38	-0.3646599948	1.825889945	-0.04271000251	-14.42334747	13.39841175	178.6819458	1.0
39	-0.3646599948	1.825889945	-0.04271000251	-15.66994858	14.51787186	178.1487122	1.0
40	-0.3646599948	1.825889945	-0.04271000251	-17.2087326	14.57725525	176.7868347	1.0
41	-0.3646599948	1.825889945	-0.04271000251	-16.48020554	13.66852188	177.4777832	1.0
[RightArm]
37	-1.24003005	0	0	62.0111618	13.97212887	-110.0435791	1.0
38	-1.24003005	0	0	67.2646637	4.169978619	-102.444603	1.0
39	-1.24003005	0	0	67.39606476	3.704376698	-101.5819092	1.0
40	-1.24003005	0	0	66.95748138	3.053616047	-100.3441162	1.0
41	-1.24003005	0	0	67.24758911	1.900503755	-100.3189392	1.0
[RightForeArm]
37	-2.847419977	0	0	-79.55632019	44.00432968	56.35267639	1.0
38	-2.847419977	0	0	-77.01159668	42.43024445	56.56266785	1.0
39	-2.847419977	0	0	-78.20376587	42.11923981	54.58071136	1.0
40	-2.847419977	0	0	-79.28427124	43.38806915	54.27579117	1.0
41	-2.847419977	0	0	-80.96457672	42.40532684	52.31339264	1.0
[RightHand]
37	-2.258270025	0	0	-6.87916851	8.401042938	161.3207855	1.0
38	-2.258270025	0	0	-7.39070797	11.05732059	159.5170593	1.0
39	-2.258270025	0	0	-6.807647705	10.55813313	157.7117004	1.0
40	-2.258270025	0	0	-5.88993454	10.91178608	156.8394623	1.0
41	-2.258270025	0	0	-6.500352383	10.73613071	157.4351501	1.0
[LeftUpLeg]
37	0.9119900465	0	0	-66.29044342	8.846804619	106.3255081	1.0
38	0.9119900465	0	0	-89.45381927	21.46012306	107.5492783	1.0
39	0.9119900465	0	0	-87.83825684	34.05059433	133.9634094	1.0
40	0.9119900465	0	0	-82.31819153	38.0256691	144.7690735	1.0
41	0.9119900465	0	0	-107.346344	27.44910049	97.74834442	1.0
[LeftLeg]
37	0	-4.371409893	0	98.52648163	28.11943436	54.55048752	1.0
38	0	-4.371409893	0	110.0685272	37.52677917	54.28227234	1.0
39	0	-4.371409893	0	54.61904144	51.90311813	-6.367707253	1.0
40	0	-4.371409893	0	35.34623718	49.43637848	-19.80547333	1.0
41	0	-4.371409893	0	101.3610687	33.49505615	44.71475601	1.0
[LeftFoot]
37	0	-3.918009996	0	-43.65927124	128.5655975	-8.174942017	1.0
38	0	-3.918009996	0	-49.71957397	133.4222717	-7.31838131	1.0
39	0	-3.918009996	0	-44.08688736	151.963562	7.602986336	1.0
40	0	-3.918009996	0	-44.63021469	150.3418884	8.10187912	1.0
41	0	-3.918009996	0	-39.04052734	134.9816895	4.981048584	1.0
[LeftToeBase]
37	0	-0.5927900076	1.367989898	0	0	0	1.0
38	0	-0.5927900076	1.367989898	0	0	0	1.0
39	0	-0.5927900076	1.367989898	0	0	0	1.0
40	0	-0.5927900076	1.367989898	0	0	0	1.0
41	0	-0.5927900076	1.367989898	0	0	0	1.0
[RightUpLeg]
37	-0.9119900465	0	0	-61.58751678	-17.42637634	105.1586838	1.0
38	-0.9119900465	0	0	-87.25771332	-16.35598183	111.6582031	1.0
39	-0.9119900465	0	0	-106.2435455	-16.71730804	115.2748642	1.0
40	-0.9119900465	0	0	-111.3038635	-18.11272812	116.1818542	1.0
41	-0.9119900465	0	0	-106.0512543	-17.48013115	119.4463959	1.0
[RightLeg]
37	0	-4.371409893	0	112.2664185	5.332401752	99.39537048	1.0
38	0	-4.371409893	0	134.4433594	-7.735092163	106.0977707	1.0
39	0	-4.371409893	0	142.4026184	-18.5725708	109.2506485	1.0
40	0	-4.371409893	0	136.8106842	-6.033635139	100.4454803	1.0
41	0	-4.371409893	0	120.7957458	6.213903427	96.64002991	1.0
[RightFoot]
37	0	-3.918009996	0	23.40166092	47.19646835	49.77248001	1.0
38	0	-3.918009996	0	10.80212879	38.19882965	45.34786987	1.0
39	0	-3.918009996	0	8.767875671	31.55534363	43.72213745	1.0
40	0	-3.918009996	0	14.99767113	42.97636795	54.9500885	1.0
41	0	-3.918009996	0	29.34879684	50.72291565	69.30412292	1.0
[RightToeBase]
37	0	-0.5927900076	1.367989898	0	0	0	1.0
38	0	-0.5927900076	1.367989898	0	0	0	1.0
39	0	-0.5927900076	1.367989898	0	0	0	1.0
40	0	-0.5927900076	1.367989898	0	0	0	1.0
41	0	-0.5927900076	1.367989898	0	0	0	1.0
[EndOfFile]
